<svg width="128" height="128" viewBox="0 0 128 128" fill="none" xmlns="http://www.w3.org/2000/svg">
<circle cx="64" cy="64" r="64" fill="#2E2E2E"/>
<path opacity="0.8" d="M76.1821 94.8381C69.7953 103.676 56.6329 103.676 50.2461 94.8382L26.0604 61.3718C18.4139 50.7911 25.9739 36 39.0284 36H87.3997C100.454 36 108.014 50.7911 100.368 61.3718L76.1821 94.8381Z" fill="#2E54FF"/>
<path d="M72.1311 48.6173L72.1313 48.6183L54.8384 50.6337L54.7956 50.149C53.9208 50.2262 53.0168 50.8197 53.0168 51.7857V73.1428C53.0168 74.151 53.9981 74.7857 54.955 74.7857C55.9119 74.7857 56.8932 74.151 56.8932 73.1428V53.2654L71.6231 51.9648V69.8572C71.6231 70.8653 72.6044 71.5 73.5613 71.5C74.5182 71.5 75.4995 70.8653 75.4995 69.8572V50.1454C75.4995 50.1288 75.4997 50.1193 75.4998 50.1112L75.4998 50.1099C75.5 50.1032 75.5004 50.0795 75.4989 50.0534C75.4972 50.0259 75.4938 50.0022 75.4924 49.9927L75.4922 49.9913L75.4859 49.9477L75.4859 49.9476C75.3489 48.9669 74.3098 48.425 73.3586 48.509C73.3585 48.509 73.3585 48.509 73.3585 48.509L72.6502 48.5715L72.1311 48.6173Z" fill="#F9F9F9" stroke="#F9F9F9"/>
<path d="M73.943 67.4215L73.6437 67.7981L73.943 67.4215C73.0031 66.6747 71.7238 66.2259 70.3295 66.2259C68.9351 66.2259 67.6559 66.6747 66.716 67.4215C65.7753 68.1691 65.1591 69.232 65.1591 70.4373C65.1591 71.6425 65.7753 72.7055 66.716 73.453C67.6559 74.1999 68.9351 74.6487 70.3295 74.6487C71.7238 74.6487 73.0031 74.1999 73.943 73.453C74.8837 72.7055 75.4999 71.6425 75.4999 70.4373C75.4999 69.232 74.8837 68.1691 73.943 67.4215Z" fill="#F9F9F9" stroke="#F9F9F9"/>
<path d="M55.4593 76.3008L55.1576 75.9148L55.4593 76.3008C56.4188 75.5508 57.05 74.4823 57.05 73.2679C57.05 72.0534 56.4188 70.9849 55.4593 70.2349C54.5005 69.4855 53.1962 69.0357 51.775 69.0357C50.3538 69.0357 49.0495 69.4855 48.0907 70.2349L48.0907 70.2349C47.1312 70.9849 46.5 72.0534 46.5 73.2679C46.5 74.4823 47.1312 75.5508 48.0907 76.3008L48.0907 76.3008C49.0495 77.0502 50.3539 77.5 51.775 77.5C53.1962 77.5 54.5005 77.0502 55.4593 76.3008Z" fill="#F9F9F9" stroke="#F9F9F9"/>
</svg>
